<!DOCTYPE svg PUBLIC "-//W3C//DTD SVG 20010904//EN" "http://www.w3.org/TR/2001/REC-SVG-20010904/DTD/svg10.dtd">
<svg version="1.0" xmlns="http://www.w3.org/2000/svg" width="100px" height="139px" viewBox="0 0 1000 1390" preserveAspectRatio="xMidYMid meet">
  <g id="layer1" fill="#FFD700" stroke="black" stroke-width="40">
    <path d="M113 1364 c-30 -23 -33 -31 -33 -77 0 -50 1 -52 71 -120 64 -64 69 -71 55 -86 -41 -45 -89 -217 -68 -244 5 -6 12 -29 16 -50 4 -21 23 -75 42 -120 28 -66 33 -89 27 -117 -4 -19 -8 -73 -9 -120 -2 -112 -25 -257 -47 -297 -25 -46 -22 -89 6 -98 41 -14 311 -15 319 -2 5 8 34 12 79 12 69 0 73 1 79 25 4 14 5 40 2 58 -4 31 -10 39 -92 117 -23 22 -50 52 -61 67 l-20 27 42 22 c37 18 43 19 51 5 5 -8 42 -44 82 -79 66 -57 81 -66 135 -75 34 -6 68 -9 77 -5 26 10 35 38 22 75 -16 48 -36 67 -83 79 -23 6 -47 19 -53 30 -12 20 -12 20 20 3 18 -10 55 -18 81 -18 42 0 52 5 83 36 46 46 53 97 13 108 -14 4 -41 14 -60 23 -31 14 -178 39 -240 41 -39 1 -54 20 -68 78 -6 29 -20 67 -32 83 -11 17 -29 47 -40 67 l-19 38 51 72 c29 40 64 88 80 107 26 31 27 37 22 111 -8 112 -2 130 45 130 51 0 82 23 82 61 0 43 -32 52 -155 44 -72 -5 -109 -13 -132 -26 -37 -23 -41 -31 -49 -113 l-6 -63 -42 41 -41 41 33 9 c19 5 38 18 43 30 14 30 -4 76 -31 76 -11 0 -20 5 -20 10 0 6 -9 10 -20 10 -11 0 -20 -5 -20 -11 0 -8 -13 -9 -42 -4 -111 18 -141 17 -175 -11z"/>
  </g>
</svg>
