<!DOCTYPE svg PUBLIC "-//W3C//DTD SVG 20010904//EN" "http://www.w3.org/TR/2001/REC-SVG-20010904/DTD/svg10.dtd">
<svg version="1.0" xmlns="http://www.w3.org/2000/svg" width="334px" height="181px" viewBox="0 0 3340 1810" preserveAspectRatio="xMidYMid meet">
  <g id="layer1" fill="black" stroke="black" stroke-width="10">
   <path d="M1395 1754 c-274 -28 -588 -115 -797 -220 -413 -208 -593 -534 -458 -831 16 -36 27 -70 23 -76 -3 -5 -2 -7 4 -4 10 7 49 -52 44 -68 -1 -5 0 -7 4 -3 4 3 23 -12 43 -35 93 -103 287 -229 473 -306 115 -48 397 -122 564 -147 176 -27 602 -27 770 1 66 11 134 19 152 20 17 0 29 3 27 6 -5 9 75 21 88 13 6 -4 8 -3 5 3 -4 6 29 19 81 33 295 76 582 244 723 422 20 26 40 44 44 40 5 -4 5 -2 2 5 -9 14 37 96 48 86 4 -5 5 -2 1 5 -4 7 0 35 9 62 18 53 35 200 24 200 -3 0 -9 19 -13 41 -23 145 -152 316 -325 431 -44 30 -78 59 -73 64 4 5 3 6 -2 2 -4 -4 -47 12 -95 36 -47 24 -103 49 -124 55 -22 8 -34 17 -31 23 4 7 2 8 -4 4 -7 -4 -43 4 -82 18 -94 34 -250 74 -385 98 -89 15 -167 20 -405 23 -162 1 -313 1 -335 -1z m643 -44 c210 -31 480 -109 626 -181 197 -99 364 -234 447 -362 106 -163 106 -370 1 -533 -43 -66 -148 -172 -238 -239 -78 -59 -316 -178 -429 -214 -108 -34 -284 -75 -427 -98 -149 -24 -523 -24 -678 1 -166 26 -414 90 -523 136 -211 87 -361 185 -484 312 -118 124 -163 226 -163 373 0 152 47 251 184 390 222 226 663 396 1124 435 146 12 406 3 560 -20z"/>
   <path d="M1576 1209 c-57 -49 -141 -158 -194 -251 -55 -95 -74 -104 -180 -93 -102 11 -95 38 28 105 71 39 149 98 169 129 l16 24 -35 -6 c-72 -15 -145 -60 -230 -144 l-85 -84 -40 11 c-83 25 -197 102 -296 203 -53 53 -104 97 -113 97 -26 0 -66 -46 -66 -76 0 -44 39 -113 79 -139 58 -39 151 -73 312 -114 83 -22 153 -42 156 -45 3 -3 -28 -47 -69 -98 -41 -51 -91 -120 -111 -153 -37 -62 -71 -144 -62 -153 8 -9 82 46 137 101 61 60 111 148 133 232 8 32 17 60 19 63 13 13 36 -11 51 -55 53 -147 129 -250 232 -310 74 -43 70 -17 -23 124 -30 46 -54 86 -54 88 0 15 29 -1 79 -43 66 -58 141 -112 153 -112 4 0 8 8 8 18 0 27 -89 125 -181 201 -44 36 -79 70 -79 77 0 11 65 24 120 24 24 0 30 -6 44 -46 19 -57 77 -162 112 -204 15 -17 39 -37 55 -46 27 -13 29 -13 29 3 0 30 -47 120 -105 205 -30 44 -55 84 -55 89 0 5 13 9 30 9 25 0 35 -9 63 -52 56 -88 220 -228 265 -228 44 0 -122 192 -212 245 -26 15 -44 31 -39 36 4 4 32 12 62 17 54 10 55 10 80 -22 60 -72 143 -143 209 -179 40 -21 72 -33 72 -27 0 17 -105 124 -177 182 -35 27 -63 53 -63 58 0 4 21 11 46 15 l45 6 80 -85 c62 -66 96 -93 151 -121 99 -49 114 -44 48 16 -59 54 -185 156 -216 176 -16 10 -17 13 -4 22 27 19 98 13 118 -9 77 -89 194 -181 261 -205 45 -16 49 -10 26 35 -13 25 -13 30 -1 30 7 0 20 -7 27 -16 17 -21 125 -94 138 -94 30 0 -82 172 -160 245 -27 25 -49 50 -49 54 0 12 75 18 100 9 10 -4 32 -25 47 -46 67 -92 302 -260 351 -250 20 4 11 14 -115 123 -45 39 -80 75 -79 80 4 14 47 7 154 -26 53 -16 98 -26 101 -23 21 21 -147 104 -306 151 -60 17 -85 43 -43 43 27 0 161 47 175 61 7 8 -17 10 -87 7 -89 -4 -103 -7 -180 -45 -64 -32 -165 -63 -205 -63 -19 0 18 32 123 105 69 48 123 89 120 92 -3 3 -37 -4 -76 -16 -62 -19 -81 -31 -148 -95 -92 -87 -103 -94 -182 -104 -103 -15 -92 8 58 121 112 83 131 112 68 100 -32 -7 -145 -108 -202 -183 -34 -45 -41 -49 -99 -59 -79 -14 -75 -14 -75 8 0 12 31 44 86 86 120 94 183 186 97 142 -42 -22 -178 -159 -208 -210 -21 -37 -33 -47 -68 -55 -71 -18 -66 1 25 96 76 80 128 156 115 168 -11 11 -170 -156 -205 -216 -26 -43 -46 -66 -61 -68 -27 -4 -27 11 4 55 13 20 22 40 19 45 -3 4 -1 8 4 8 21 0 72 155 72 220 0 34 -1 33 -41 -35 -68 -116 -86 -157 -99 -227 l-12 -68 -57 -1 c-31 -1 -67 -2 -81 -3 -49 -2 -35 31 47 117 56 58 89 104 117 159 21 43 36 83 34 89 -2 7 -20 -2 -42 -22z m955 -271 c40 -22 50 -44 24 -54 -18 -7 -85 41 -85 62 0 20 16 18 61 -8z m-226 -56 c3 -20 13 -48 22 -60 24 -38 7 -38 -49 1 -29 20 -74 45 -100 57 -27 11 -48 25 -48 29 0 12 143 28 156 18 7 -4 15 -24 19 -45z m-1036 -96 c22 -22 31 -40 27 -51 -4 -12 -10 -14 -25 -5 -26 14 -64 67 -56 80 10 16 19 12 54 -24z"/>
   </g>
  <g id="layer2" fill="#FFD700" stroke="none">
   <path d="M1315 1754 c-538 -73 -952 -277 -1143 -563 -46 -69 -83 -173 -81 -230 1 -32 2 -30 10 16 20 121 82 233 190 342 194 195 544 347 966 418 157 26 688 26 848 0 234 -39 486 -117 656 -203 155 -78 312 -200 394 -308 36 -47 84 -149 100 -213 l15 -58 -5 50 c-3 31 -21 82 -47 135 -76 153 -242 297 -475 413 -192 97 -500 182 -742 207 -144 14 -564 11 -686 -6z"/>
   <path d="M1478 1730 c-461 -39 -902 -209 -1124 -435 -137 -139 -184 -238 -184 -390 0 -147 45 -249 163 -373 123 -127 273 -225 484 -312 109 -46 357 -110 523 -136 155 -25 529 -25 678 -1 143 23 319 64 427 98 113 36 351 155 429 214 90 67 195 173 238 239 105 163 105 370 -1 533 -83 128 -250 263 -447 362 -78 38 -269 104 -399 137 -223 57 -552 83 -787 64z m106 -588 c-28 -55 -61 -101 -117 -159 -82 -86 -96 -119 -47 -117 14 1 50 2 81 3 l57 1 12 68 c13 70 31 111 99 227 40 68 41 69 41 35 0 -65 -51 -220 -72 -220 -5 0 -7 -4 -4 -8 3 -5 -6 -25 -19 -45 -31 -44 -31 -59 -4 -55 15 2 35 25 61 68 35 60 194 227 205 216 13 -12 -39 -88 -115 -168 -91 -95 -96 -114 -25 -96 35 8 47 18 68 55 30 51 166 188 208 210 86 44 23 -48 -97 -142 -55 -42 -86 -74 -86 -86 0 -22 -4 -22 75 -8 58 10 65 14 99 59 57 75 170 176 202 183 63 12 44 -17 -68 -100 -150 -113 -161 -136 -58 -121 79 10 90 17 182 104 67 64 86 76 148 95 39 12 73 19 76 16 3 -3 -51 -44 -120 -92 -105 -73 -142 -105 -123 -105 40 0 141 31 205 63 77 38 91 41 180 45 70 3 94 1 87 -7 -14 -14 -148 -61 -175 -61 -42 0 -17 -26 43 -43 159 -47 327 -130 306 -151 -3 -3 -48 7 -101 23 -107 33 -150 40 -154 26 -1 -5 34 -41 79 -80 126 -109 135 -119 115 -123 -49 -10 -284 158 -351 250 -15 21 -37 42 -47 46 -25 9 -100 3 -100 -9 0 -4 22 -29 49 -54 78 -73 190 -245 160 -245 -13 0 -121 73 -138 94 -7 9 -20 16 -27 16 -12 0 -12 -5 1 -30 23 -45 19 -51 -26 -35 -67 24 -184 116 -261 205 -20 22 -91 28 -118 9 -13 -9 -12 -12 4 -22 31 -20 157 -122 216 -176 66 -60 51 -65 -48 -16 -55 28 -89 55 -151 121 l-80 85 -45 -6 c-25 -4 -46 -11 -46 -15 0 -5 28 -31 63 -58 72 -58 177 -165 177 -182 0 -6 -32 6 -72 27 -66 36 -149 107 -209 179 -25 32 -26 32 -80 22 -30 -5 -58 -13 -62 -17 -5 -5 13 -21 39 -36 90 -53 256 -245 212 -245 -45 0 -209 140 -265 228 -28 43 -38 52 -63 52 -17 0 -30 -4 -30 -9 0 -5 25 -45 55 -89 58 -85 105 -175 105 -205 0 -16 -2 -16 -29 -3 -16 9 -40 29 -55 46 -35 42 -93 147 -112 204 -14 40 -20 46 -44 46 -55 0 -120 -13 -120 -24 0 -7 35 -41 79 -77 92 -76 181 -174 181 -201 0 -10 -4 -18 -8 -18 -12 0 -87 54 -153 112 -50 42 -79 58 -79 43 0 -2 24 -42 54 -88 93 -141 97 -167 23 -124 -103 60 -179 163 -232 310 -15 44 -38 68 -51 55 -2 -3 -11 -31 -19 -63 -22 -84 -72 -172 -133 -232 -55 -55 -129 -110 -137 -101 -9 9 25 91 62 153 20 33 70 102 111 153 41 51 72 95 69 98 -3 3 -73 23 -156 45 -161 41 -254 75 -312 114 -40 26 -79 95 -79 139 0 30 40 76 66 76 9 0 60 -44 113 -97 99 -101 213 -178 296 -203 l40 -11 85 84 c85 84 158 129 230 144 l35 6 -16 -24 c-20 -31 -98 -90 -169 -129 -123 -67 -130 -94 -28 -105 106 -11 125 -2 180 93 76 132 225 305 236 273 2 -6 -13 -46 -34 -89z"/>
   <path d="M2470 946 c0 -21 67 -69 85 -62 26 10 16 32 -24 54 -45 26 -61 28 -61 8z"/>
   <path d="M2203 926 c-40 -5 -73 -12 -73 -17 0 -4 21 -18 48 -29 26 -12 71 -37 100 -57 56 -39 73 -39 49 -1 -9 12 -19 40 -22 60 -4 21 -12 41 -19 45 -6 5 -44 5 -83 -1z"/>
   <path d="M1215 810 c-8 -13 30 -66 56 -80 15 -9 21 -7 25 5 4 11 -5 29 -27 51 -35 36 -44 40 -54 24z"/>
   <path d="M3273 900 c0 -30 2 -43 4 -27 2 15 2 39 0 55 -2 15 -4 2 -4 -28z"/>
   <path d="M91 844 c-5 -139 153 -360 353 -494 233 -156 558 -263 926 -306 174 -20 535 -15 698 10 529 80 931 277 1111 544 47 69 91 178 90 220 0 18 -5 9 -15 -28 -28 -107 -83 -199 -174 -291 -94 -95 -160 -143 -301 -218 -226 -120 -523 -201 -853 -232 -161 -15 -481 -7 -636 16 -160 24 -444 98 -559 145 -193 81 -374 200 -477 314 -65 72 -139 215 -153 296 -6 36 -9 45 -10 24z"/>
  </g>
</svg>
