<!DOCTYPE svg PUBLIC "-//W3C//DTD SVG 20010904//EN" "http://www.w3.org/TR/2001/REC-SVG-20010904/DTD/svg10.dtd">
<svg version="1.0" xmlns="http://www.w3.org/2000/svg" width="918px" height="570px" viewBox="0 0 9180 5700" preserveAspectRatio="xMidYMid meet">
  <g id="layer1" fill="#FFD700" stroke="black" stroke-width="200">
    <path d="M375 5570 c-87 -12 -140 -51 -170 -122 -48 -116 22 -217 241 -348 185 -111 310 -223 436 -393 114 -154 167 -305 148 -423 -13 -78 -34 -138 -110 -309 -163 -365 -201 -549 -205 -995 -3 -342 -12 -410 -74 -535 -25 -49 -81 -130 -146 -210 -154 -191 -205 -299 -205 -439 0 -167 138 -421 340 -626 217 -220 400 -293 620 -246 208 45 351 166 653 549 246 313 376 451 505 534 151 97 271 84 330 -36 23 -48 27 -68 27 -141 -1 -106 -7 -125 -113 -344 l-86 -179 -4 -98 c-4 -79 0 -111 17 -166 43 -138 160 -258 336 -344 191 -92 345 -122 715 -139 541 -24 713 -40 886 -85 177 -46 320 -110 575 -257 175 -101 235 -122 328 -116 80 6 137 33 197 94 106 109 118 288 37 539 -74 230 -171 396 -317 541 -117 118 -216 181 -484 310 -386 187 -436 213 -494 258 -102 81 -150 175 -150 297 -1 92 19 140 74 180 109 78 211 81 543 16 295 -58 410 -71 556 -64 220 12 530 85 809 189 376 141 539 257 971 694 160 162 297 315 471 524 252 304 372 428 626 649 100 87 132 120 130 136 -5 31 -36 29 -108 -8 -200 -102 -399 -252 -975 -737 -328 -276 -461 -380 -560 -435 -140 -79 -249 -97 -325 -54 -59 33 -82 77 -88 163 -6 105 16 177 103 332 158 280 170 315 205 644 24 223 23 219 95 440 29 91 59 200 66 243 15 99 7 205 -22 264 -50 103 -178 190 -344 234 -112 29 -325 32 -407 5 -114 -37 -169 -114 -171 -236 -1 -76 15 -118 91 -234 63 -96 77 -140 62 -197 -6 -23 -17 -50 -23 -60 -19 -31 -89 -52 -142 -45 -66 10 -188 76 -280 151 -262 215 -640 503 -701 533 -120 61 -301 69 -387 19 -55 -32 -97 -98 -104 -161 -14 -122 81 -219 361 -367 184 -97 345 -240 456 -406 77 -114 94 -169 95 -293 0 -99 -2 -109 -33 -173 -41 -82 -123 -174 -190 -210 -118 -64 -292 -77 -512 -38 -134 23 -615 142 -1235 306 -242 63 -532 136 -645 160 -579 126 -698 160 -796 223 -111 72 -249 197 -554 502 -345 344 -439 425 -548 471 -137 57 -292 84 -397 69z"/>
    <path d="M8803 4795 c-97 -21 -213 -87 -293 -166 -67 -66 -90 -105 -75 -128 4 -7 51 -11 119 -11 253 0 496 106 496 216 0 48 -15 73 -55 90 -42 17 -110 17 -192 -1z"/>
  </g>
</svg>
